<svg width="55" height="54" viewBox="0 0 55 54" fill="none" xmlns="http://www.w3.org/2000/svg">
<circle cx="27.4686" cy="26.8155" r="26.403" stroke="black" stroke-width="0.825093"/>
<path d="M21.598 36.5513V34.109C22.2229 33.5897 22.9402 32.9869 23.7499 32.3004C24.5595 31.6051 25.3824 30.8702 26.2185 30.0957C27.0546 29.3125 27.8247 28.5336 28.5288 27.7591C29.2329 26.9758 29.8005 26.2365 30.2318 25.5412C30.6718 24.8371 30.8919 24.2255 30.8919 23.7062C30.8919 23.1166 30.7466 22.5797 30.4562 22.0956C30.1746 21.6028 29.7917 21.2111 29.3077 20.9207C28.8236 20.6215 28.2868 20.4719 27.6971 20.4719C27.1074 20.4719 26.5662 20.6215 26.0733 20.9207C25.5893 21.2111 25.1976 21.6028 24.8984 22.0956C24.6079 22.5797 24.4627 23.1166 24.4627 23.7062H21.7168C21.7168 22.5885 21.9897 21.5808 22.5353 20.6831C23.0898 19.7766 23.8159 19.0593 24.7136 18.5312C25.6201 17.9944 26.6146 17.7259 27.6971 17.7259C28.7884 17.7259 29.7829 17.9944 30.6806 18.5312C31.5783 19.0681 32.2956 19.7898 32.8325 20.6963C33.3693 21.594 33.6378 22.5973 33.6378 23.7062C33.6378 24.3223 33.5102 24.956 33.2549 25.6072C32.9997 26.2585 32.6433 26.923 32.1856 27.6007C31.7368 28.2783 31.2131 28.9648 30.6146 29.6601C30.0162 30.3554 29.3737 31.0506 28.6872 31.7459C28.0007 32.4412 27.3011 33.1277 26.5882 33.8054H33.7962V36.5513H21.598Z" fill="black"/>
</svg>
