<svg width="55" height="54" viewBox="0 0 55 54" fill="none" xmlns="http://www.w3.org/2000/svg">
<circle cx="27.2221" cy="26.8155" r="26.403" stroke="black" stroke-width="0.825093"/>
<path d="M28.0223 36.8945C26.9046 36.8945 25.9013 36.6349 25.0124 36.1156C24.1323 35.5964 23.437 34.9011 22.9266 34.0298C22.4161 33.1585 22.1609 32.1904 22.1609 31.1255H24.9068C24.9068 31.6799 25.0388 32.186 25.3028 32.6436C25.5669 33.1013 25.9321 33.4665 26.3986 33.7394C26.865 34.0122 27.4063 34.1486 28.0223 34.1486C28.5768 34.1486 29.0917 34.0122 29.5669 33.7394C30.0422 33.4665 30.425 33.1013 30.7155 32.6436C31.0059 32.186 31.1511 31.6799 31.1511 31.1255C31.1511 30.4214 30.9663 29.8317 30.5966 29.3565C30.227 28.8812 29.7121 28.5292 29.0521 28.3003C28.4008 28.0627 27.6483 27.9439 26.7946 27.9439V25.7789C27.9563 25.7789 28.8848 25.55 29.5801 25.0924C30.2754 24.6347 30.623 23.9526 30.623 23.0461C30.623 22.5709 30.4954 22.1396 30.2402 21.7524C29.9938 21.3564 29.6637 21.0439 29.2501 20.8151C28.8452 20.5775 28.4096 20.4587 27.9431 20.4587C27.4591 20.4587 26.9926 20.5775 26.5438 20.8151C26.1037 21.0439 25.7429 21.3564 25.4613 21.7524C25.1796 22.1396 25.0388 22.5709 25.0388 23.0461H22.2929C22.2929 22.3157 22.4425 21.6292 22.7418 20.9867C23.0498 20.3354 23.4634 19.7678 23.9827 19.2837C24.5108 18.7909 25.1092 18.408 25.7781 18.1352C26.4558 17.8536 27.1643 17.7127 27.9035 17.7127C28.8716 17.7127 29.7693 17.9548 30.5966 18.4388C31.4327 18.9141 32.1016 19.5566 32.6033 20.3662C33.1137 21.1671 33.369 22.0604 33.369 23.0461C33.369 23.8294 33.1753 24.5731 32.7881 25.2772C32.4096 25.9725 31.8816 26.4653 31.2039 26.7558C31.7936 26.967 32.2864 27.3014 32.6825 27.7591C33.0873 28.2079 33.391 28.7272 33.5934 29.3169C33.7958 29.8977 33.897 30.5006 33.897 31.1255C33.897 32.1816 33.6286 33.1497 33.0917 34.0298C32.5549 34.9011 31.8376 35.5964 30.9399 36.1156C30.051 36.6349 29.0785 36.8945 28.0223 36.8945Z" fill="black"/>
</svg>
