<svg width="54" height="54" viewBox="0 0 54 54" fill="none" xmlns="http://www.w3.org/2000/svg">
<circle cx="27.0128" cy="26.8155" r="26.403" stroke="black" stroke-width="0.825093"/>
<path d="M27.0915 36.8945C25.9209 36.8945 24.8604 36.6129 23.9099 36.0496C22.9682 35.4775 22.2201 34.7207 21.6657 33.779C21.12 32.8284 20.8472 31.7899 20.8472 30.6634H23.5931C23.5931 31.3059 23.7515 31.8911 24.0683 32.4192C24.3852 32.9473 24.8076 33.3697 25.3357 33.6865C25.8637 33.9946 26.449 34.1486 27.0915 34.1486C27.7251 34.1486 28.306 33.9946 28.8341 33.6865C29.3621 33.3697 29.7846 32.9473 30.1014 32.4192C30.4182 31.8911 30.5767 31.3059 30.5767 30.6634C30.5767 30.0209 30.4314 29.4357 30.141 28.9076C29.8506 28.3707 29.4149 27.9439 28.8341 27.6271C28.2532 27.3014 27.5139 27.1386 26.6162 27.1386H21.9561L23.8307 18.0692H32.7681V20.8151H26.0618L25.3357 24.3927L26.9331 24.4191C28.1916 24.4455 29.2961 24.7359 30.2466 25.2904C31.2059 25.8361 31.9584 26.5753 32.5041 27.5082C33.0497 28.4324 33.3226 29.4841 33.3226 30.6634C33.3226 31.5171 33.1598 32.3224 32.8341 33.0793C32.5085 33.8274 32.0596 34.4874 31.4876 35.0595C30.9243 35.6316 30.2642 36.0804 29.5073 36.4061C28.7593 36.7317 27.954 36.8945 27.0915 36.8945Z" fill="black"/>
</svg>
