<svg width="21" height="20" viewBox="0 0 21 20" fill="none" xmlns="http://www.w3.org/2000/svg">
<path d="M10.3697 6.50073C8.60142 6.50073 7.15836 7.94381 7.15836 9.71213C7.15836 11.4805 8.60142 12.9235 10.3697 12.9235C12.138 12.9235 13.581 11.4805 13.581 9.71213C13.581 7.94381 12.138 6.50073 10.3697 6.50073ZM20.0013 9.71213C20.0013 8.38228 20.0134 7.06447 19.9387 5.73703C19.864 4.19517 19.5123 2.82677 18.3848 1.69929C17.2549 0.569397 15.889 0.22007 14.3471 0.145386C13.0173 0.070702 11.6995 0.0827478 10.3721 0.0827478C9.04228 0.0827478 7.7245 0.070702 6.39708 0.145386C4.85525 0.22007 3.48688 0.571806 2.35942 1.69929C1.22954 2.82918 0.880223 4.19517 0.805541 5.73703C0.730858 7.06688 0.742904 8.38469 0.742904 9.71213C0.742904 11.0396 0.730858 12.3598 0.805541 13.6872C0.880223 15.2291 1.23195 16.5975 2.35942 17.725C3.48929 18.8549 4.85525 19.2042 6.39708 19.2789C7.72691 19.3536 9.04469 19.3415 10.3721 19.3415C11.7019 19.3415 13.0197 19.3536 14.3471 19.2789C15.889 19.2042 17.2573 18.8525 18.3848 17.725C19.5147 16.5951 19.864 15.2291 19.9387 13.6872C20.0158 12.3598 20.0013 11.042 20.0013 9.71213ZM10.3697 14.6533C7.63536 14.6533 5.42862 12.4465 5.42862 9.71213C5.42862 6.97774 7.63536 4.77096 10.3697 4.77096C13.104 4.77096 15.3108 6.97774 15.3108 9.71213C15.3108 12.4465 13.104 14.6533 10.3697 14.6533ZM15.5131 5.72258C14.8747 5.72258 14.3592 5.20702 14.3592 4.56859C14.3592 3.93017 14.8747 3.41461 15.5131 3.41461C16.1516 3.41461 16.6671 3.93017 16.6671 4.56859C16.6673 4.72019 16.6376 4.87033 16.5797 5.01043C16.5217 5.15052 16.4367 5.27781 16.3295 5.38501C16.2224 5.4922 16.0951 5.5772 15.955 5.63512C15.8149 5.69305 15.6647 5.72277 15.5131 5.72258Z" fill="#1B296D"/>
</svg>
