<svg width="61" height="60" viewBox="0 0 61 60" fill="none" xmlns="http://www.w3.org/2000/svg">
<path d="M60.5 30C60.5 46.2846 47.0764 59.5 30.5 59.5C13.9236 59.5 0.5 46.2846 0.5 30C0.5 13.7154 13.9236 0.5 30.5 0.5C47.0764 0.5 60.5 13.7154 60.5 30Z" stroke="white"/>
<path d="M40.7071 30.7071C41.0976 30.3166 41.0976 29.6834 40.7071 29.2929L34.3431 22.9289C33.9526 22.5384 33.3195 22.5384 32.9289 22.9289C32.5384 23.3195 32.5384 23.9526 32.9289 24.3431L38.5858 30L32.9289 35.6569C32.5384 36.0474 32.5384 36.6805 32.9289 37.0711C33.3195 37.4616 33.9526 37.4616 34.3431 37.0711L40.7071 30.7071ZM22 31H40V29H22V31Z" fill="white"/>
</svg>
