<svg width="61" height="60" viewBox="0 0 61 60" fill="none" xmlns="http://www.w3.org/2000/svg">
<path d="M60.5 30C60.5 46.2846 47.0764 59.5 30.5 59.5C13.9236 59.5 0.5 46.2846 0.5 30C0.5 13.7154 13.9236 0.5 30.5 0.5C47.0764 0.5 60.5 13.7154 60.5 30Z" stroke="white"/>
<path d="M21.2929 30.7071C20.9024 30.3166 20.9024 29.6834 21.2929 29.2929L27.6569 22.9289C28.0474 22.5384 28.6805 22.5384 29.0711 22.9289C29.4616 23.3195 29.4616 23.9526 29.0711 24.3431L23.4142 30L29.0711 35.6569C29.4616 36.0474 29.4616 36.6805 29.0711 37.0711C28.6805 37.4616 28.0474 37.4616 27.6569 37.0711L21.2929 30.7071ZM40 31H22V29H40V31Z" fill="white"/>
</svg>
